<svg width="35" height="46" viewBox="0 0 35 46" fill="none" xmlns="http://www.w3.org/2000/svg">
<path d="M8.32172 17.0915C9.22177 17.0915 9.95155 16.3698 9.95105 15.4803L9.94854 12.8332C9.94653 8.63056 13.4051 5.20916 17.6577 5.20717C21.9103 5.20519 25.3724 8.62311 25.3744 12.8258L25.3769 15.4833C25.3779 16.3718 26.1067 17.092 27.0063 17.092H28.2498C29.1504 17.092 29.8797 16.3703 29.8792 15.4808L29.8767 12.8233C29.8721 6.16664 24.39 0.75434 17.6547 0.757814C10.9194 0.761289 5.44277 6.17855 5.44629 12.8352L5.4488 15.4833C5.44981 16.3718 6.17858 17.092 7.07813 17.092H8.32172V17.0915Z" fill="url(#paint0_linear)" fill-opacity="0.7" style="mix-blend-mode:multiply"/>
<path d="M30.9764 18.7578H4.60779C2.29238 18.7578 0.413933 20.6192 0.418955 22.9074V41.0989C0.418955 43.3871 2.30243 45.2435 4.61784 45.2435L30.7253 45.2286C33.0407 45.2286 34.9191 43.3722 34.9141 41.084V22.8875C34.9141 20.6886 33.1713 18.8918 30.9764 18.7578Z" fill="#004FEE"/>
<path d="M18.6624 32.3901C19.6262 31.7731 20.2651 30.6929 20.2651 29.4636C20.2651 27.5459 18.7104 25.9912 16.7927 25.9912C14.875 25.9912 13.3203 27.5459 13.3203 29.4636C13.3203 30.6929 13.9592 31.7731 14.923 32.3901V35.607H18.6624V32.3901Z" fill="white"/>
<defs>
<linearGradient id="paint0_linear" x1="17.6627" y1="0.757812" x2="17.6627" y2="17.092" gradientUnits="userSpaceOnUse">
<stop stop-color="#6EF3E8"/>
<stop offset="1" stop-color="#6EF3E8" stop-opacity="0.32"/>
</linearGradient>
</defs>
</svg>
