<svg width="49" height="48" viewBox="0 0 49 48" fill="none" xmlns="http://www.w3.org/2000/svg">
<g clip-path="url(#clip0)">
<path fill-rule="evenodd" clip-rule="evenodd" d="M24.6076 12.4795C34.3291 12.4795 42.1615 20.4505 42.1615 30.2395C42.1615 40.0751 34.3291 47.9995 24.6076 47.9995C14.9322 47.9995 7.05371 40.0751 7.05371 30.2395C7.05371 20.4505 14.9322 12.4795 24.6076 12.4795Z" fill="#004FEE"/>
<path d="M20.1789 33.153L17.1143 33.6397C17.7368 37.1439 19.7 39.0421 23.1477 39.4801V41.5243H26.2602V39.5288C29.3249 39.1394 32.2937 37.1926 32.2937 33.737C32.2937 29.5027 28.1756 28.8213 24.9195 27.9453C23.5308 27.5559 20.6098 27.1666 20.6098 25.1711C20.6098 23.1756 23.0999 22.7862 24.5843 22.7862C26.6433 22.7862 28.2235 23.6623 28.5587 25.9011L31.5755 25.4631C31.0487 22.2509 29.3249 20.8394 26.2602 20.3527V18.3086H23.1477V20.3041C20.2747 20.6448 17.641 22.2995 17.641 25.5604C17.641 29.7461 21.8549 30.5248 25.0152 31.3035C26.4997 31.6929 29.1333 32.0822 29.1333 34.0777C29.1333 36.3165 26.7391 36.9979 24.9195 36.9979C22.3337 36.9979 20.5141 35.8785 20.1789 33.153Z" fill="white"/>
<circle cx="14.734" cy="14.3998" r="14.4" transform="rotate(-90 14.734 14.3998)" fill="url(#paint0_linear)" fill-opacity="0.7" style="mix-blend-mode:multiply"/>
</g>
<defs>
<linearGradient id="paint0_linear" x1="14.734" y1="-0.000193596" x2="14.734" y2="28.7998" gradientUnits="userSpaceOnUse">
<stop stop-color="#6EF3E8"/>
<stop offset="1" stop-color="#6EF3E8" stop-opacity="0.3"/>
</linearGradient>
<clipPath id="clip0">
<rect width="48" height="48" fill="white" transform="translate(0.333984)"/>
</clipPath>
</defs>
</svg>
