<?xml version="1.0" encoding="utf-8"?>
<!-- Generator: Adobe Illustrator 25.4.1, SVG Export Plug-In . SVG Version: 6.00 Build 0)  -->
<svg version="1.1" id="Layer_1" xmlns="http://www.w3.org/2000/svg" xmlns:xlink="http://www.w3.org/1999/xlink" x="0px" y="0px"
	 viewBox="0 0 122 29" style="enable-background:new 0 0 122 29;" xml:space="preserve">
<style type="text/css">
	.st0{clip-path:url(#SVGID_00000054986972655287756650000016211925870844182973_);}
	.st1{fill:#293854;}
	.st2{fill:#00B67A;}
	.st3{fill:#005128;}
</style>
<g>
	<defs>
		<polygon id="SVGID_1_" points="0,0.5 122,-1.69 122,25.99 0,28.5 		"/>
	</defs>
	<clipPath id="SVGID_00000142857019378362223530000008381724887311094150_">
		<use xlink:href="#SVGID_1_"  style="overflow:visible;"/>
	</clipPath>
	<g style="clip-path:url(#SVGID_00000142857019378362223530000008381724887311094150_);">
		<path class="st1" d="M33.01,5.99h12.22v2.38h-4.8v13.4h-2.64V8.37H33V5.99H33.01z M44.71,10.34h2.26v2.2h0.04
			c0.07-0.31,0.21-0.61,0.42-0.9c0.2-0.29,0.45-0.57,0.74-0.8c0.29-0.24,0.61-0.43,0.96-0.59c0.35-0.14,0.71-0.22,1.08-0.22
			c0.28,0,0.48,0.01,0.59,0.02c0.11,0.01,0.21,0.03,0.33,0.04v2.43c-0.17-0.03-0.34-0.06-0.52-0.08c-0.18-0.02-0.35-0.03-0.52-0.03
			c-0.4,0-0.79,0.09-1.15,0.26c-0.36,0.17-0.67,0.42-0.94,0.75c-0.27,0.33-0.48,0.73-0.64,1.22c-0.16,0.49-0.23,1.05-0.23,1.68v5.43
			H44.7V10.34H44.71z M62.18,21.77h-2.37v-1.59h-0.04c-0.3,0.58-0.74,1.04-1.32,1.38s-1.18,0.52-1.79,0.52
			c-1.44,0-2.48-0.37-3.12-1.11c-0.64-0.75-0.96-1.87-0.96-3.37v-7.25h2.41v7c0,1,0.18,1.71,0.55,2.13
			c0.36,0.41,0.88,0.62,1.54,0.62c0.51,0,0.93-0.08,1.27-0.25c0.34-0.17,0.62-0.38,0.82-0.66c0.21-0.27,0.36-0.6,0.46-0.98
			c0.1-0.38,0.14-0.79,0.14-1.24v-6.63h2.41V21.77z M66.28,18.11c0.07,0.73,0.34,1.25,0.8,1.55c0.47,0.29,1.02,0.45,1.67,0.45
			c0.22,0,0.48-0.02,0.77-0.06c0.29-0.03,0.56-0.11,0.81-0.21c0.26-0.1,0.46-0.26,0.63-0.46c0.16-0.2,0.23-0.46,0.22-0.78
			c-0.01-0.32-0.13-0.59-0.34-0.79c-0.21-0.21-0.48-0.37-0.81-0.5c-0.33-0.12-0.7-0.23-1.13-0.32c-0.43-0.09-0.85-0.19-1.29-0.29
			c-0.45-0.1-0.88-0.23-1.3-0.38c-0.42-0.14-0.79-0.35-1.12-0.6c-0.33-0.24-0.6-0.57-0.79-0.96c-0.2-0.39-0.3-0.87-0.3-1.45
			c0-0.62,0.15-1.14,0.44-1.56c0.29-0.42,0.66-0.76,1.1-1.01c0.45-0.26,0.94-0.43,1.48-0.55c0.54-0.1,1.07-0.16,1.56-0.16
			c0.56,0,1.11,0.07,1.62,0.19c0.51,0.12,0.98,0.32,1.4,0.61c0.42,0.28,0.76,0.65,1.03,1.09s0.45,0.99,0.52,1.63h-2.51
			c-0.12-0.6-0.37-1.01-0.79-1.21c-0.42-0.21-0.89-0.31-1.43-0.31c-0.17,0-0.37,0.01-0.61,0.04c-0.23,0.03-0.45,0.09-0.66,0.17
			c-0.2,0.08-0.37,0.2-0.52,0.36c-0.14,0.16-0.21,0.36-0.21,0.61c0,0.31,0.11,0.56,0.31,0.75c0.2,0.19,0.47,0.35,0.8,0.48
			c0.33,0.12,0.7,0.23,1.13,0.32c0.43,0.09,0.86,0.19,1.31,0.29c0.44,0.1,0.86,0.23,1.29,0.38c0.43,0.14,0.8,0.35,1.13,0.6
			c0.33,0.26,0.6,0.57,0.8,0.95c0.2,0.38,0.31,0.86,0.31,1.41c0,0.68-0.15,1.25-0.45,1.73c-0.3,0.47-0.68,0.86-1.15,1.15
			c-0.47,0.29-1,0.51-1.58,0.65c-0.58,0.13-1.15,0.2-1.72,0.2c-0.69,0-1.33-0.08-1.92-0.24c-0.59-0.17-1.1-0.41-1.52-0.74
			c-0.43-0.33-0.77-0.75-1.01-1.24c-0.25-0.49-0.37-1.08-0.39-1.76h2.43V18.11z M74.23,10.34h1.82V6.91h2.41v3.43h2.17v1.88h-2.17
			v6.1c0,0.27,0.01,0.49,0.03,0.69c0.02,0.19,0.07,0.36,0.15,0.49c0.07,0.13,0.19,0.23,0.35,0.3c0.16,0.07,0.36,0.1,0.64,0.1
			c0.17,0,0.34,0,0.51-0.01c0.17-0.01,0.34-0.03,0.51-0.08v1.95c-0.27,0.03-0.53,0.06-0.78,0.09c-0.26,0.03-0.51,0.04-0.78,0.04
			c-0.64,0-1.15-0.07-1.53-0.19c-0.38-0.12-0.69-0.31-0.91-0.56c-0.22-0.24-0.36-0.55-0.45-0.91c-0.07-0.37-0.13-0.79-0.14-1.26
			v-6.74h-1.82v-1.9H74.23z M82.34,10.34h2.28v1.55h0.04c0.34-0.67,0.81-1.14,1.42-1.43c0.61-0.29,1.26-0.43,1.97-0.43
			c0.86,0,1.61,0.16,2.25,0.48c0.64,0.31,1.17,0.75,1.6,1.3c0.43,0.56,0.74,1.2,0.95,1.94c0.21,0.74,0.32,1.53,0.32,2.36
			c0,0.77-0.1,1.51-0.29,2.23c-0.19,0.72-0.48,1.36-0.86,1.92c-0.38,0.56-0.87,0.99-1.47,1.33c-0.6,0.33-1.29,0.5-2.1,0.5
			c-0.35,0-0.7-0.03-1.05-0.1c-0.35-0.07-0.69-0.18-1.01-0.32c-0.32-0.14-0.63-0.33-0.89-0.57c-0.28-0.23-0.5-0.5-0.69-0.8h-0.04
			v6.96h-2.41V10.34z M90.75,16.07c0-0.51-0.06-1.01-0.19-1.5c-0.13-0.49-0.32-0.91-0.58-1.29c-0.26-0.38-0.58-0.68-0.95-0.9
			c-0.38-0.22-0.82-0.35-1.31-0.35c-1.01,0-1.78,0.37-2.29,1.1c-0.51,0.74-0.77,1.71-0.77,2.94c0,0.58,0.06,1.11,0.2,1.6
			c0.14,0.49,0.33,0.91,0.61,1.27c0.27,0.36,0.59,0.63,0.96,0.84c0.37,0.21,0.81,0.31,1.3,0.31c0.55,0,1.01-0.12,1.4-0.36
			c0.38-0.23,0.69-0.55,0.94-0.91c0.25-0.38,0.43-0.8,0.53-1.28C90.7,17.06,90.75,16.57,90.75,16.07z M95,5.99h2.41v2.38H95V5.99z
			 M95,10.34h2.41v11.43H95V10.34z M99.56,5.99h2.41v15.78h-2.41V5.99z M109.35,22.08c-0.87,0-1.65-0.16-2.33-0.46
			c-0.68-0.3-1.26-0.72-1.74-1.25c-0.47-0.53-0.83-1.17-1.08-1.9c-0.25-0.73-0.37-1.55-0.37-2.43c0-0.87,0.13-1.67,0.37-2.41
			c0.25-0.73,0.61-1.37,1.08-1.9c0.47-0.53,1.05-0.95,1.74-1.25c0.68-0.3,1.46-0.46,2.33-0.46c0.87,0,1.65,0.16,2.33,0.46
			c0.68,0.3,1.26,0.72,1.74,1.25c0.47,0.53,0.83,1.17,1.08,1.9c0.25,0.74,0.37,1.54,0.37,2.41c0,0.88-0.13,1.69-0.37,2.43
			c-0.25,0.74-0.61,1.37-1.08,1.9c-0.47,0.53-1.06,0.95-1.74,1.25C111,21.93,110.23,22.08,109.35,22.08z M109.35,20.09
			c0.53,0,1-0.12,1.4-0.36c0.39-0.23,0.71-0.55,0.97-0.92c0.26-0.38,0.44-0.81,0.56-1.29c0.12-0.48,0.18-0.97,0.18-1.47
			c0-0.49-0.06-0.97-0.18-1.46c-0.12-0.49-0.31-0.91-0.56-1.29c-0.26-0.38-0.58-0.68-0.97-0.91c-0.39-0.23-0.86-0.36-1.4-0.36
			c-0.53,0-1,0.12-1.39,0.36c-0.39,0.23-0.71,0.55-0.97,0.91c-0.26,0.38-0.44,0.8-0.56,1.29c-0.12,0.49-0.18,0.97-0.18,1.46
			c0,0.5,0.06,0.99,0.18,1.47c0.12,0.48,0.31,0.91,0.56,1.29c0.26,0.38,0.58,0.69,0.97,0.92C108.35,19.98,108.82,20.09,109.35,20.09
			z M115.58,10.34h1.82V6.91h2.41v3.43h2.17v1.88h-2.17v6.1c0,0.27,0.01,0.49,0.03,0.69c0.02,0.19,0.08,0.36,0.15,0.49
			c0.07,0.13,0.19,0.23,0.35,0.3c0.16,0.07,0.36,0.1,0.64,0.1c0.17,0,0.34,0,0.51-0.01c0.17-0.01,0.34-0.03,0.51-0.08v1.95
			c-0.27,0.03-0.53,0.06-0.78,0.09c-0.25,0.03-0.51,0.04-0.78,0.04c-0.64,0-1.15-0.07-1.53-0.19c-0.38-0.12-0.69-0.31-0.91-0.56
			c-0.22-0.24-0.36-0.55-0.45-0.91c-0.07-0.37-0.13-0.79-0.14-1.26v-6.74h-1.82v-1.9H115.58z"/>
		<path class="st2" d="M29,11.2H17.93L14.51,0.5l-3.43,10.7L0,11.19l8.97,6.62L5.54,28.5l8.97-6.61l8.96,6.61l-3.42-10.69L29,11.2z"
			/>
		<path class="st3" d="M20.83,20.23l-0.77-2.43L14.5,21.9L20.83,20.23z"/>
	</g>
</g>
</svg>
